<?xml version="1.0" standalone="no"?>
<!DOCTYPE svg PUBLIC "-//W3C//DTD SVG 20010904//EN"
 "http://www.w3.org/TR/2001/REC-SVG-20010904/DTD/svg10.dtd">
<svg version="1.0" xmlns="http://www.w3.org/2000/svg"
 width="200" height="75" viewBox="0 0 193.000000 107.000000"
 preserveAspectRatio="xMidYMid meet">

<g transform="translate(0.000000,107.000000) scale(0.100000,-0.100000)"
fill="rgba(255, 255, 255, 0.75)" stroke="none">
<path d="M972 992 c-16 -15 -44 -56 -61 -90 -31 -61 -32 -62 -74 -62 -39 0
-67 -13 -67 -31 0 -5 23 -20 50 -36 49 -27 51 -29 48 -68 -2 -33 -7 -41 -25
-43 -24 -3 -26 0 -27 53 -1 23 -6 30 -21 30 -15 0 -24 -12 -35 -47 -18 -57
-35 -77 -51 -61 -8 8 -7 25 4 64 9 29 14 56 11 61 -9 14 -40 9 -98 -17 -69
-30 -76 -31 -129 -3 -23 12 -60 27 -82 33 -32 10 -41 17 -43 39 -5 37 -54 38
-70 1 -10 -22 -18 -25 -60 -25 -67 0 -147 -26 -184 -59 -25 -22 -30 -33 -24
-54 3 -15 19 -33 34 -41 34 -17 122 -36 168 -36 36 0 36 0 30 -37 -18 -117
-26 -205 -21 -213 18 -30 91 6 230 115 83 64 155 137 155 156 0 6 -5 19 -10
29 -8 15 -6 21 9 30 32 17 43 13 31 -10 -6 -12 -10 -38 -8 -58 3 -31 7 -37 29
-40 17 -2 37 6 57 23 26 22 35 24 52 15 17 -9 27 -8 47 5 13 9 26 15 27 13 2
-2 7 -31 13 -65 l9 -61 -90 -27 c-186 -56 -466 -182 -466 -209 0 -57 29 -58
120 -7 96 55 230 114 353 157 l105 36 25 -26 c35 -35 69 -33 101 5 14 17 26
37 26 45 0 7 10 16 23 19 165 38 379 65 520 65 94 0 98 -1 92 -20 -7 -22 13
-28 32 -9 8 8 17 8 31 0 33 -18 43 -14 32 13 -7 19 -5 28 11 42 28 25 25 46
-5 38 -20 -5 -27 0 -39 23 l-15 28 -13 -28 c-8 -19 -20 -27 -33 -26 -35 2 -39
0 -26 -16 11 -13 -2 -15 -108 -15 -150 0 -407 -25 -484 -46 -14 -4 -18 1 -18
19 0 14 -16 57 -36 95 l-36 71 23 30 c19 23 32 30 62 30 20 1 37 -2 37 -5 0
-3 -11 -19 -25 -36 -35 -41 -41 -74 -20 -98 24 -27 65 -25 109 5 43 29 46 30
46 10 0 -23 11 -18 58 28 l43 42 -17 -46 c-19 -51 -14 -82 11 -73 8 4 34 38
56 76 51 87 74 90 74 8 0 -63 -3 -62 117 -41 38 6 79 9 93 5 18 -4 25 -2 25 7
-1 35 -16 41 -96 38 l-79 -4 -1 47 c-1 27 -7 55 -14 63 -16 19 -49 19 -74 0
-27 -20 -34 -19 -38 7 -6 42 -33 31 -74 -29 l-39 -58 -3 46 -3 47 -57 -5 c-31
-2 -77 -1 -100 2 -39 6 -43 9 -37 28 15 46 18 137 5 152 -20 24 -65 18 -98
-13z m57 -54 c-2 -75 -34 -120 -74 -104 -12 4 -11 13 6 53 35 82 70 108 68 51z
m-49 -141 c0 -7 -5 -18 -12 -25 -9 -9 -16 -8 -30 5 -26 23 -22 33 12 33 18 0
30 -5 30 -13z m215 -55 c-16 -38 -62 -84 -79 -79 -5 2 -14 11 -20 20 -14 21
16 63 63 88 45 24 54 16 36 -29z m-912 1 c2 -5 2 -25 0 -45 l-5 -38 -63 0
c-47 0 -69 5 -86 19 -20 16 -21 21 -10 35 7 9 28 20 45 25 39 11 113 14 119 4z
m172 -31 l30 -16 -40 -12 c-22 -7 -52 -13 -67 -13 -27 -1 -28 6 -12 57 4 15
43 8 89 -16z m531 -107 c13 -27 24 -55 24 -61 0 -6 -18 -16 -39 -22 -36 -9
-40 -8 -45 12 -3 11 -6 52 -6 90 l0 69 21 -19 c12 -10 32 -41 45 -69z m-440
31 c3 -8 1 -24 -5 -35 -14 -25 -190 -161 -209 -161 -10 0 -12 11 -7 48 18 124
10 114 110 138 113 27 105 27 111 10z m446 -178 c-9 -9 -15 -9 -24 0 -9 9 -7
12 12 12 19 0 21 -3 12 -12z"/>
<path d="M1247 363 c-30 -76 -37 -113 -21 -113 8 0 25 7 38 15 21 14 24 14 36
0 7 -8 21 -15 32 -15 17 0 19 5 13 33 -4 17 -15 51 -25 75 -24 55 -52 57 -73
5z m61 -23 c12 0 13 -3 5 -11 -6 -6 -9 -18 -6 -25 8 -22 -41 -12 -50 10 -5 13
-2 23 10 32 10 7 20 8 21 3 2 -5 11 -9 20 -9z"/>
<path d="M1710 325 c0 -43 4 -75 10 -75 6 0 10 32 10 75 0 43 -4 75 -10 75 -6
0 -10 -32 -10 -75z"/>
<path d="M1380 340 c-24 -24 -28 -90 -6 -90 10 0 16 13 18 38 2 29 7 37 23 37
16 0 21 -8 23 -37 5 -54 32 -52 32 1 0 30 -6 44 -22 55 -30 21 -44 20 -68 -4z"/>
<path d="M1502 344 c-24 -17 -30 -62 -10 -82 14 -14 78 -16 78 -3 0 5 -12 11
-27 13 -22 2 -28 8 -28 28 0 20 6 26 28 28 30 4 36 17 11 26 -22 9 -27 8 -52
-10z"/>
<path d="M1602 344 c-24 -17 -30 -62 -10 -82 7 -7 26 -12 43 -12 38 0 55 16
55 51 0 27 -30 59 -55 59 -6 0 -21 -7 -33 -16z m56 -42 c4 -30 -26 -42 -44
-17 -10 14 -11 22 -2 32 16 20 42 12 46 -15z"/>
<path d="M790 120 c0 -5 5 -10 10 -10 6 0 10 -13 10 -30 0 -16 5 -30 10 -30 6
0 10 14 10 30 0 17 5 30 10 30 6 0 10 5 10 10 0 6 -13 10 -30 10 -16 0 -30 -4
-30 -10z"/>
<path d="M892 90 c0 -25 2 -37 5 -27 5 21 43 23 43 2 0 -8 5 -15 10 -15 12 0
13 67 1 74 -5 3 -11 -3 -14 -14 -7 -27 -26 -25 -37 3 -7 18 -9 13 -8 -23z"/>
<path d="M1000 90 c0 -37 2 -40 28 -39 23 2 24 2 5 6 -13 2 -23 9 -23 14 0 5
10 9 23 10 21 0 21 1 -3 11 -25 11 -25 11 -2 15 30 6 28 23 -3 23 -22 0 -25
-4 -25 -40z"/>
<path d="M1090 90 c0 -22 5 -40 10 -40 6 0 10 10 10 23 1 22 1 22 14 -3 l14
-25 14 30 13 29 6 -30 c6 -26 7 -24 8 14 1 48 -10 54 -29 15 l-13 -28 -9 28
c-15 42 -38 35 -38 -13z"/>
<path d="M1230 90 c0 -37 2 -40 28 -39 23 2 24 2 5 6 -13 2 -23 8 -23 13 0 5
10 11 23 13 l22 4 -22 2 c-28 1 -31 21 -3 21 11 0 20 5 20 10 0 6 -11 10 -25
10 -22 0 -25 -4 -25 -40z"/>
<path d="M1360 90 c0 -22 5 -40 10 -40 6 0 10 4 10 9 0 5 9 13 20 16 24 8 27
40 4 49 -35 13 -44 7 -44 -34z m50 9 c0 -5 -7 -9 -15 -9 -8 0 -15 7 -15 15 0
9 6 12 15 9 8 -4 15 -10 15 -15z"/>
<path d="M1469 103 c-5 -16 -11 -33 -13 -39 -2 -6 10 -10 30 -10 38 1 38 1 23
45 -13 38 -26 40 -40 4z m31 -25 c0 -5 -4 -8 -10 -8 -5 0 -10 10 -10 23 0 18
2 19 10 7 5 -8 10 -18 10 -22z"/>
<path d="M1560 90 c0 -38 20 -60 20 -22 1 16 1 16 14 0 16 -21 30 -24 23 -4
-3 7 -1 18 5 24 16 16 -8 42 -38 42 -21 0 -24 -5 -24 -40z m50 9 c0 -5 -7 -9
-15 -9 -8 0 -15 7 -15 15 0 9 6 12 15 9 8 -4 15 -10 15 -15z"/>
<path d="M1670 125 c-6 -23 -4 -75 3 -75 4 0 7 7 7 15 0 19 16 19 24 0 3 -8
10 -15 16 -15 7 0 5 9 -4 22 -14 20 -14 24 1 40 10 11 12 18 4 18 -6 0 -14 -7
-17 -15 -8 -20 -21 -19 -27 3 -3 9 -6 13 -7 7z"/>
</g>
</svg>
